# xmcd CD database file
#
# Track frame offsets:
#	150
#	21008
#	44509
#	61711
#	90713
#	107427
#	126861
#	144316
#	165932
#	184568
#	200403
#	217831
#	234871
#	254281
#	277098
#
# Disc length: 4083 seconds
#
# Revision: 3
# Processed by: cddbd v1.5.1PL0 Copyright (c) Steve Scherf et al.
# Submitted via: CDex 1.51
#
DISCID=c00ff10f
DTITLE=Xavier Naidoo - Zwischenspiel - Alles für den Herrn CD2
DYEAR=2002
DGENRE=Rhythmic Soul
TTITLE0=Mägde und Knechte
TTITLE1=Brief
TTITLE2=Der Herr knickt alle Bäume
TTITLE3=Don't give up
TTITLE4=Wer weiss schon was der Morgen bringt
TTITLE5=Gut aufgepasst
TTITLE6=Alles für den Herrn
TTITLE7=Wenn ich schon Kinder hätte
TTITLE8=Wo driften wir hin
TTITLE9=Kleines Lied
TTITLE10=Klagelieder
TTITLE11=Die Dinge singen hör ich so gern
TTITLE12=Lied (Du nur, du)
TTITLE13=Keep your eyes on me
TTITLE14=Wenn du es willst (Mir sind die Hände gebunden)
EXTD=YEAR: 2002
EXTT0=
EXTT1=
EXTT2=
EXTT3=
EXTT4=
EXTT5=
EXTT6=
EXTT7=
EXTT8=
EXTT9=
EXTT10=
EXTT11=
EXTT12=
EXTT13=
EXTT14=
PLAYORDER=
